<svg width="160" height="50" viewBox="0 0 160 50" fill="none" xmlns="http://www.w3.org/2000/svg">
<rect width="160" height="50" rx="6" fill="#29536F"/>
<path d="M51.8 18H54.4V32H51.8V18ZM44.56 32H41.96V18H44.56V32ZM52 26H44.34V23.78H52V26ZM57.5472 32L63.8472 18H66.4072L72.7272 32H70.0072L64.5872 19.38H65.6272L60.2272 32H57.5472ZM60.4472 28.76L61.1472 26.72H68.7072L69.4072 28.76H60.4472ZM74.4941 30.62L75.3341 28.72C75.9341 29.1333 76.5874 29.4533 77.2941 29.68C78.0141 29.8933 78.7274 30.0067 79.4341 30.02C80.1407 30.0333 80.7807 29.9533 81.3541 29.78C81.9407 29.6067 82.4074 29.3467 82.7541 29C83.1007 28.6533 83.2741 28.22 83.2741 27.7C83.2741 27.0733 83.0141 26.6067 82.4941 26.3C81.9874 25.98 81.2941 25.82 80.4141 25.82H77.1541V23.78H80.2141C81.0007 23.78 81.6074 23.62 82.0341 23.3C82.4741 22.98 82.6941 22.5467 82.6941 22C82.6941 21.5467 82.5474 21.1733 82.2541 20.88C81.9741 20.5867 81.5874 20.3667 81.0941 20.22C80.6141 20.0733 80.0674 20.0067 79.4541 20.02C78.8541 20.02 78.2274 20.1133 77.5741 20.3C76.9207 20.4733 76.3007 20.7333 75.7141 21.08L74.8941 18.98C75.7741 18.5133 76.6941 18.1867 77.6541 18C78.6274 17.8133 79.5674 17.76 80.4741 17.84C81.3807 17.92 82.1941 18.1267 82.9141 18.46C83.6474 18.7933 84.2341 19.2333 84.6741 19.78C85.1141 20.3133 85.3341 20.9467 85.3341 21.68C85.3341 22.3467 85.1541 22.94 84.7941 23.46C84.4474 23.9667 83.9674 24.36 83.3541 24.64C82.7407 24.92 82.0274 25.06 81.2141 25.06L81.3141 24.42C82.2341 24.42 83.0341 24.58 83.7141 24.9C84.4074 25.2067 84.9407 25.6333 85.3141 26.18C85.7007 26.7267 85.8941 27.36 85.8941 28.08C85.8941 28.76 85.7207 29.3667 85.3741 29.9C85.0274 30.42 84.5541 30.86 83.9541 31.22C83.3541 31.5667 82.6674 31.8267 81.8941 32C81.1207 32.16 80.3074 32.22 79.4541 32.18C78.6007 32.14 77.7474 31.9933 76.8941 31.74C76.0541 31.4867 75.2541 31.1133 74.4941 30.62ZM88.0823 32L94.3823 18H96.9423L103.262 32H100.542L95.1223 19.38H96.1623L90.7623 32H88.0823ZM90.9823 28.76L91.6823 26.72H99.2423L99.9423 28.76H90.9823ZM115.729 30.8V20.2H110.249L110.149 22.68C110.109 23.6133 110.049 24.5 109.969 25.34C109.902 26.1667 109.789 26.92 109.629 27.6C109.482 28.28 109.275 28.8467 109.009 29.3C108.742 29.7533 108.415 30.0533 108.029 30.2L105.229 29.8C105.735 29.8267 106.149 29.6533 106.469 29.28C106.802 28.9067 107.062 28.3867 107.249 27.72C107.435 27.0533 107.575 26.2733 107.669 25.38C107.762 24.4733 107.829 23.4933 107.869 22.44L108.029 18H118.289V30.8H115.729ZM104.749 34.98L104.769 29.8H120.309V34.98H117.909V32H107.169V34.98H104.749Z" fill="#C3ECFF"/>
</svg>
