<svg width="160" height="50" viewBox="0 0 160 50" fill="none" xmlns="http://www.w3.org/2000/svg">
<rect width="160" height="50" rx="6" fill="#29536F"/>
<path d="M52.46 32.2C51.3667 32.2 50.36 32.02 49.44 31.66C48.52 31.3 47.72 30.8 47.04 30.16C46.36 29.5067 45.8333 28.7467 45.46 27.88C45.0867 27 44.9 26.04 44.9 25C44.9 23.96 45.0867 23.0067 45.46 22.14C45.8333 21.26 46.36 20.5 47.04 19.86C47.72 19.2067 48.52 18.7 49.44 18.34C50.36 17.98 51.36 17.8 52.44 17.8C53.5333 17.8 54.5333 17.98 55.44 18.34C56.36 18.7 57.16 19.2067 57.84 19.86C58.52 20.5 59.0467 21.26 59.42 22.14C59.7933 23.0067 59.98 23.96 59.98 25C59.98 26.04 59.7933 27 59.42 27.88C59.0467 28.76 58.52 29.52 57.84 30.16C57.16 30.8 56.36 31.3 55.44 31.66C54.5333 32.02 53.54 32.2 52.46 32.2ZM52.44 29.92C53.1467 29.92 53.8 29.8 54.4 29.56C55 29.32 55.52 28.98 55.96 28.54C56.4 28.0867 56.74 27.5667 56.98 26.98C57.2333 26.38 57.36 25.72 57.36 25C57.36 24.28 57.2333 23.6267 56.98 23.04C56.74 22.44 56.4 21.92 55.96 21.48C55.52 21.0267 55 20.68 54.4 20.44C53.8 20.2 53.1467 20.08 52.44 20.08C51.7333 20.08 51.08 20.2 50.48 20.44C49.8933 20.68 49.3733 21.0267 48.92 21.48C48.48 21.92 48.1333 22.44 47.88 23.04C47.64 23.6267 47.52 24.28 47.52 25C47.52 25.7067 47.64 26.36 47.88 26.96C48.1333 27.56 48.48 28.0867 48.92 28.54C49.36 28.98 49.88 29.32 50.48 29.56C51.08 29.8 51.7333 29.92 52.44 29.92ZM80.2219 18H82.8219V32H80.2219V18ZM72.9819 32H70.3819V18H72.9819V32ZM80.4219 26H72.7619V23.78H80.4219V26ZM85.9691 32L92.2691 18H94.8291L101.149 32H98.4291L93.0091 19.38H94.0491L88.6491 32H85.9691ZM88.8691 28.76L89.5691 26.72H97.1291L97.8291 28.76H88.8691ZM110.541 32.2C109.474 32.2 108.481 32.0267 107.561 31.68C106.654 31.32 105.861 30.82 105.181 30.18C104.514 29.5267 103.994 28.76 103.621 27.88C103.247 27 103.061 26.04 103.061 25C103.061 23.96 103.247 23 103.621 22.12C103.994 21.24 104.521 20.48 105.201 19.84C105.881 19.1867 106.674 18.6867 107.581 18.34C108.487 17.98 109.481 17.8 110.561 17.8C111.707 17.8 112.754 18 113.701 18.4C114.647 18.7867 115.447 19.3667 116.101 20.14L114.421 21.72C113.914 21.1733 113.347 20.7667 112.721 20.5C112.094 20.22 111.414 20.08 110.681 20.08C109.947 20.08 109.274 20.2 108.661 20.44C108.061 20.68 107.534 21.02 107.081 21.46C106.641 21.9 106.294 22.42 106.041 23.02C105.801 23.62 105.681 24.28 105.681 25C105.681 25.72 105.801 26.38 106.041 26.98C106.294 27.58 106.641 28.1 107.081 28.54C107.534 28.98 108.061 29.32 108.661 29.56C109.274 29.8 109.947 29.92 110.681 29.92C111.414 29.92 112.094 29.7867 112.721 29.52C113.347 29.24 113.914 28.82 114.421 28.26L116.101 29.86C115.447 30.62 114.647 31.2 113.701 31.6C112.754 32 111.701 32.2 110.541 32.2Z" fill="#C3ECFF"/>
</svg>
