<svg width="160" height="50" viewBox="0 0 160 50" fill="none" xmlns="http://www.w3.org/2000/svg">
<rect width="160" height="50" rx="6" fill="#29536F"/>
<path d="M55.08 31.1C53.32 31.1 51.82 30.86 50.58 30.38C49.3533 29.9 48.4133 29.2067 47.76 28.3C47.1067 27.38 46.78 26.2733 46.78 24.98C46.78 23.66 47.1067 22.5467 47.76 21.64C48.4133 20.7333 49.3533 20.04 50.58 19.56C51.82 19.08 53.32 18.84 55.08 18.84C55.1067 18.84 55.1667 18.84 55.26 18.84C55.3667 18.84 55.4667 18.84 55.56 18.84C55.6667 18.84 55.7267 18.84 55.74 18.84C57.4867 18.84 58.9733 19.08 60.2 19.56C61.4267 20.04 62.36 20.74 63 21.66C63.64 22.5667 63.96 23.6733 63.96 24.98C63.96 26.26 63.64 27.36 63 28.28C62.3733 29.2 61.4533 29.9 60.24 30.38C59.04 30.86 57.5733 31.1 55.84 31.1C55.8133 31.1 55.74 31.1 55.62 31.1C55.5133 31.1 55.4 31.1 55.28 31.1C55.1733 31.1 55.1067 31.1 55.08 31.1ZM55.34 29.08C55.3667 29.08 55.4067 29.08 55.46 29.08C55.5133 29.08 55.5467 29.08 55.56 29.08C56.8533 29.0667 57.9333 28.9067 58.8 28.6C59.68 28.2933 60.34 27.84 60.78 27.24C61.2333 26.6267 61.46 25.8667 61.46 24.96C61.46 24.0533 61.2333 23.3 60.78 22.7C60.3267 22.1 59.6667 21.6467 58.8 21.34C57.9333 21.0333 56.8667 20.88 55.6 20.88C55.5867 20.88 55.5467 20.88 55.48 20.88C55.4133 20.88 55.3667 20.88 55.34 20.88C54.02 20.88 52.9067 21.0333 52 21.34C51.1067 21.6333 50.4333 22.0867 49.98 22.7C49.54 23.3 49.32 24.06 49.32 24.98C49.32 25.9 49.5533 26.6667 50.02 27.28C50.5 27.88 51.1867 28.3333 52.08 28.64C52.9733 28.9333 54.06 29.08 55.34 29.08ZM54.18 32.56V17.44H56.58V32.56H54.18ZM74.1905 32.2C73.0971 32.2 72.0905 32.02 71.1705 31.66C70.2505 31.3 69.4505 30.8 68.7705 30.16C68.0905 29.5067 67.5638 28.7467 67.1905 27.88C66.8171 27 66.6305 26.04 66.6305 25C66.6305 23.96 66.8171 23.0067 67.1905 22.14C67.5638 21.26 68.0905 20.5 68.7705 19.86C69.4505 19.2067 70.2505 18.7 71.1705 18.34C72.0905 17.98 73.0905 17.8 74.1705 17.8C75.2638 17.8 76.2638 17.98 77.1705 18.34C78.0905 18.7 78.8905 19.2067 79.5705 19.86C80.2505 20.5 80.7771 21.26 81.1505 22.14C81.5238 23.0067 81.7105 23.96 81.7105 25C81.7105 26.04 81.5238 27 81.1505 27.88C80.7771 28.76 80.2505 29.52 79.5705 30.16C78.8905 30.8 78.0905 31.3 77.1705 31.66C76.2638 32.02 75.2705 32.2 74.1905 32.2ZM74.1705 29.92C74.8771 29.92 75.5305 29.8 76.1305 29.56C76.7305 29.32 77.2505 28.98 77.6905 28.54C78.1305 28.0867 78.4705 27.5667 78.7105 26.98C78.9638 26.38 79.0905 25.72 79.0905 25C79.0905 24.28 78.9638 23.6267 78.7105 23.04C78.4705 22.44 78.1305 21.92 77.6905 21.48C77.2505 21.0267 76.7305 20.68 76.1305 20.44C75.5305 20.2 74.8771 20.08 74.1705 20.08C73.4638 20.08 72.8105 20.2 72.2105 20.44C71.6238 20.68 71.1038 21.0267 70.6505 21.48C70.2105 21.92 69.8638 22.44 69.6105 23.04C69.3705 23.6267 69.2505 24.28 69.2505 25C69.2505 25.7067 69.3705 26.36 69.6105 26.96C69.8638 27.56 70.2105 28.0867 70.6505 28.54C71.0905 28.98 71.6105 29.32 72.2105 29.56C72.8105 29.8 73.4638 29.92 74.1705 29.92ZM88.3297 32V19.56L88.9497 20.2H83.7097V18H95.5497V20.2H90.3097L90.9097 19.56V32H88.3297ZM105.097 32.2C104.003 32.2 102.997 32.02 102.077 31.66C101.157 31.3 100.357 30.8 99.6767 30.16C98.9967 29.5067 98.4701 28.7467 98.0967 27.88C97.7234 27 97.5367 26.04 97.5367 25C97.5367 23.96 97.7234 23.0067 98.0967 22.14C98.4701 21.26 98.9967 20.5 99.6767 19.86C100.357 19.2067 101.157 18.7 102.077 18.34C102.997 17.98 103.997 17.8 105.077 17.8C106.17 17.8 107.17 17.98 108.077 18.34C108.997 18.7 109.797 19.2067 110.477 19.86C111.157 20.5 111.683 21.26 112.057 22.14C112.43 23.0067 112.617 23.96 112.617 25C112.617 26.04 112.43 27 112.057 27.88C111.683 28.76 111.157 29.52 110.477 30.16C109.797 30.8 108.997 31.3 108.077 31.66C107.17 32.02 106.177 32.2 105.097 32.2ZM105.077 29.92C105.783 29.92 106.437 29.8 107.037 29.56C107.637 29.32 108.157 28.98 108.597 28.54C109.037 28.0867 109.377 27.5667 109.617 26.98C109.87 26.38 109.997 25.72 109.997 25C109.997 24.28 109.87 23.6267 109.617 23.04C109.377 22.44 109.037 21.92 108.597 21.48C108.157 21.0267 107.637 20.68 107.037 20.44C106.437 20.2 105.783 20.08 105.077 20.08C104.37 20.08 103.717 20.2 103.117 20.44C102.53 20.68 102.01 21.0267 101.557 21.48C101.117 21.92 100.77 22.44 100.517 23.04C100.277 23.6267 100.157 24.28 100.157 25C100.157 25.7067 100.277 26.36 100.517 26.96C100.77 27.56 101.117 28.0867 101.557 28.54C101.997 28.98 102.517 29.32 103.117 29.56C103.717 29.8 104.37 29.92 105.077 29.92Z" fill="#C3ECFF"/>
</svg>
