<svg width="160" height="50" viewBox="0 0 160 50" fill="none" xmlns="http://www.w3.org/2000/svg">
<rect width="160" height="50" rx="6" fill="#29536F"/>
<path d="M28.18 32L34.48 18H37.04L43.36 32H40.64L35.22 19.38H36.26L30.86 32H28.18ZM31.08 28.76L31.78 26.72H39.34L40.04 28.76H31.08ZM56.3469 18H58.9469V32H56.3469V18ZM49.1069 32H46.5069V18H49.1069V32ZM56.5469 26H48.8869V23.78H56.5469V26ZM70.3741 32.2C69.2807 32.2 68.2741 32.02 67.3541 31.66C66.4341 31.3 65.6341 30.8 64.9541 30.16C64.2741 29.5067 63.7474 28.7467 63.3741 27.88C63.0007 27 62.8141 26.04 62.8141 25C62.8141 23.96 63.0007 23.0067 63.3741 22.14C63.7474 21.26 64.2741 20.5 64.9541 19.86C65.6341 19.2067 66.4341 18.7 67.3541 18.34C68.2741 17.98 69.2741 17.8 70.3541 17.8C71.4474 17.8 72.4474 17.98 73.3541 18.34C74.2741 18.7 75.0741 19.2067 75.7541 19.86C76.4341 20.5 76.9607 21.26 77.3341 22.14C77.7074 23.0067 77.8941 23.96 77.8941 25C77.8941 26.04 77.7074 27 77.3341 27.88C76.9607 28.76 76.4341 29.52 75.7541 30.16C75.0741 30.8 74.2741 31.3 73.3541 31.66C72.4474 32.02 71.4541 32.2 70.3741 32.2ZM70.3541 29.92C71.0607 29.92 71.7141 29.8 72.3141 29.56C72.9141 29.32 73.4341 28.98 73.8741 28.54C74.3141 28.0867 74.6541 27.5667 74.8941 26.98C75.1474 26.38 75.2741 25.72 75.2741 25C75.2741 24.28 75.1474 23.6267 74.8941 23.04C74.6541 22.44 74.3141 21.92 73.8741 21.48C73.4341 21.0267 72.9141 20.68 72.3141 20.44C71.7141 20.2 71.0607 20.08 70.3541 20.08C69.6474 20.08 68.9941 20.2 68.3941 20.44C67.8074 20.68 67.2874 21.0267 66.8341 21.48C66.3941 21.92 66.0474 22.44 65.7941 23.04C65.5541 23.6267 65.4341 24.28 65.4341 25C65.4341 25.7067 65.5541 26.36 65.7941 26.96C66.0474 27.56 66.3941 28.0867 66.8341 28.54C67.2741 28.98 67.7941 29.32 68.3941 29.56C68.9941 29.8 69.6474 29.92 70.3541 29.92ZM91.6086 18H94.2086V32H91.6086V18ZM84.3686 32H81.7686V18H84.3686V32ZM91.8086 26H84.1486V23.78H91.8086V26ZM105.576 32.2C104.509 32.2 103.516 32.0267 102.596 31.68C101.689 31.32 100.896 30.82 100.216 30.18C99.5491 29.5267 99.0291 28.76 98.6558 27.88C98.2824 27 98.0958 26.04 98.0958 25C98.0958 23.96 98.2824 23 98.6558 22.12C99.0291 21.24 99.5558 20.48 100.236 19.84C100.916 19.1867 101.709 18.6867 102.616 18.34C103.522 17.98 104.516 17.8 105.596 17.8C106.742 17.8 107.789 18 108.736 18.4C109.682 18.7867 110.482 19.3667 111.136 20.14L109.456 21.72C108.949 21.1733 108.382 20.7667 107.756 20.5C107.129 20.22 106.449 20.08 105.716 20.08C104.982 20.08 104.309 20.2 103.696 20.44C103.096 20.68 102.569 21.02 102.116 21.46C101.676 21.9 101.329 22.42 101.076 23.02C100.836 23.62 100.716 24.28 100.716 25C100.716 25.72 100.836 26.38 101.076 26.98C101.329 27.58 101.676 28.1 102.116 28.54C102.569 28.98 103.096 29.32 103.696 29.56C104.309 29.8 104.982 29.92 105.716 29.92C106.449 29.92 107.129 29.7867 107.756 29.52C108.382 29.24 108.949 28.82 109.456 28.26L111.136 29.86C110.482 30.62 109.682 31.2 108.736 31.6C107.789 32 106.736 32.2 105.576 32.2ZM121.01 22.74C122.677 22.74 123.963 23.1133 124.87 23.86C125.777 24.6067 126.23 25.7267 126.23 27.22C126.23 28.7933 125.73 29.9867 124.73 30.8C123.743 31.6 122.363 32 120.59 32H114.57V18H117.13V22.74H121.01ZM120.47 30C121.47 30 122.243 29.7667 122.79 29.3C123.35 28.8333 123.63 28.1533 123.63 27.26C123.63 26.38 123.357 25.74 122.81 25.34C122.263 24.9267 121.483 24.72 120.47 24.72H117.13V30H120.47ZM128.25 32V18H130.81V32H128.25Z" fill="#C3ECFF"/>
</svg>
