<svg width="160" height="50" viewBox="0 0 160 50" fill="none" xmlns="http://www.w3.org/2000/svg">
<rect width="160" height="50" rx="6" fill="#29536F"/>
<path d="M37.22 32L32.48 25.18L34.58 23.88L40.16 32H37.22ZM27.96 32V18H30.52V32H27.96ZM29.74 26.1V23.86H34.46V26.1H29.74ZM34.82 25.3L32.44 24.98L37.22 18H39.98L34.82 25.3ZM49.3858 32.2C48.2924 32.2 47.2858 32.02 46.3658 31.66C45.4458 31.3 44.6458 30.8 43.9658 30.16C43.2858 29.5067 42.7591 28.7467 42.3858 27.88C42.0124 27 41.8258 26.04 41.8258 25C41.8258 23.96 42.0124 23.0067 42.3858 22.14C42.7591 21.26 43.2858 20.5 43.9658 19.86C44.6458 19.2067 45.4458 18.7 46.3658 18.34C47.2858 17.98 48.2858 17.8 49.3658 17.8C50.4591 17.8 51.4591 17.98 52.3658 18.34C53.2858 18.7 54.0858 19.2067 54.7658 19.86C55.4458 20.5 55.9724 21.26 56.3458 22.14C56.7191 23.0067 56.9058 23.96 56.9058 25C56.9058 26.04 56.7191 27 56.3458 27.88C55.9724 28.76 55.4458 29.52 54.7658 30.16C54.0858 30.8 53.2858 31.3 52.3658 31.66C51.4591 32.02 50.4658 32.2 49.3858 32.2ZM49.3658 29.92C50.0724 29.92 50.7258 29.8 51.3258 29.56C51.9258 29.32 52.4458 28.98 52.8858 28.54C53.3258 28.0867 53.6658 27.5667 53.9058 26.98C54.1591 26.38 54.2858 25.72 54.2858 25C54.2858 24.28 54.1591 23.6267 53.9058 23.04C53.6658 22.44 53.3258 21.92 52.8858 21.48C52.4458 21.0267 51.9258 20.68 51.3258 20.44C50.7258 20.2 50.0724 20.08 49.3658 20.08C48.6591 20.08 48.0058 20.2 47.4058 20.44C46.8191 20.68 46.2991 21.0267 45.8458 21.48C45.4058 21.92 45.0591 22.44 44.8058 23.04C44.5658 23.6267 44.4458 24.28 44.4458 25C44.4458 25.7067 44.5658 26.36 44.8058 26.96C45.0591 27.56 45.4058 28.0867 45.8458 28.54C46.2858 28.98 46.8058 29.32 47.4058 29.56C48.0058 29.8 48.6591 29.92 49.3658 29.92ZM70.6203 18H73.2203V32H70.6203V18ZM63.3803 32H60.7803V18H63.3803V32ZM70.8203 26H63.1603V23.78H70.8203V26ZM81.0875 32V19.56L81.7075 20.2H76.4675V18H88.3075V20.2H83.0675L83.6675 19.56V32H81.0875ZM93.9498 23.82H100.91V25.96H93.9498V23.82ZM94.1498 29.82H102.05V32H91.5498V18H101.77V20.18H94.1498V29.82ZM115.788 18H118.388V32H115.788V18ZM108.548 32H105.948V18H108.548V32ZM115.988 26H108.328V23.78H115.988V26ZM126.255 32V19.56L126.875 20.2H121.635V18H133.475V20.2H128.235L128.835 19.56V32H126.255Z" fill="#C3ECFF"/>
</svg>
